<svg xmlns="http://www.w3.org/2000/svg" xmlns:xlink="http://www.w3.org/1999/xlink" version="1.1" x="0px" y="0px" width="720px" height="720px" viewBox="0 0 720 720" enable-background="new 0 0 720 720" xml:space="preserve">
<g id="Shape_8_1_" enable-background="new    ">
	<g id="Shape_8">
		<g>
			<path fill-rule="evenodd" clip-rule="evenodd" fill="#CCE9FF" d="M598.32,214.32c-181.735-37.527-58.763-36.377-125.865-77.589     C405.353,95.52,200.79,136.7,119.141,196.263C37.492,255.827,96.482,285.9,112.08,345.12c15.598,59.22-2.715,98.115-37.92,152.88     c-40.747,94.867,98.443,115.395,174.24,81.6s55.44-3.209,111.349,10.944c102.167,25.948,342.999-121.584,302.565-176.318     C601.783,332.288,780.055,251.847,598.32,214.32z"/>
		</g>
	</g>
</g>
<g id="Rounded_Rectangle_3_1_" enable-background="new    ">
	<g id="Rounded_Rectangle_3">
		<g>
			<path fill-rule="evenodd" clip-rule="evenodd" fill="#FFBE55" d="M261.84,222.52h-80.88c-1.326,0-2.4,1.074-2.4,2.4V247     c0,1.325,1.075,2.4,2.4,2.4h80.88c1.326,0,2.4-1.075,2.4-2.4v-22.08C264.24,223.594,263.165,222.52,261.84,222.52z"/>
		</g>
	</g>
</g>
<g id="Rounded_Rectangle_2_1_" enable-background="new    ">
	<g id="Rounded_Rectangle_2">
		<g>
			<path fill-rule="evenodd" clip-rule="evenodd" fill="#2A94F4" d="M558.72,227.04H247.68c-1.326,0-2.4,1.075-2.4,2.4v19.44h-84     c-1.325,0-2.4,1.075-2.4,2.4v43.68c0,1.325,1.075,2.4,2.4,2.4h84.491c0.438,0.58,1.127,0.96,1.909,0.96h311.04     c1.325,0,2.4-1.075,2.4-2.4v-66.48C561.12,228.115,560.045,227.04,558.72,227.04z"/>
		</g>
	</g>
</g>
<g id="Rounded_Rectangle_1_1_">
	<g id="Rounded_Rectangle_1">
		<g>
			<path fill-rule="evenodd" clip-rule="evenodd" fill="#FFBE55" d="M563.28,286.8H156.96c-1.326,0-2.4,1.075-2.4,2.4v227.28h411.12     V289.2C565.68,287.875,564.605,286.8,563.28,286.8z"/>
		</g>
	</g>
</g>
<g id="Rectangle_4_1_" enable-background="new    ">
	<g id="Rectangle_4">
		<g>
			<rect x="250.08" y="297.84" fill-rule="evenodd" clip-rule="evenodd" fill="#0B4870" width="220.08" height="208.08"/>
		</g>
	</g>
</g>
<g id="Rectangle_4_copy_2_" enable-background="new    ">
	<defs>
		<path id="SVGID_1_" enable-background="new    " d="M154.56,299.76v6.48h411.12v-6.48H154.56z M154.56,495.96h411.12v-6.48H154.56    V495.96z"/>
	</defs>
	<clipPath id="SVGID_2_">
		<use xlink:href="#SVGID_1_" overflow="visible"/>
	</clipPath>
	<g clip-path="url(#SVGID_2_)">
		
			<image overflow="visible" width="3000" height="3000" id="Rectangle_4_copy_xA0_Image" xlink:href="E2D5E0E8D26BF78E.png" transform="matrix(0.24 0 0 0.24 0 0)">
		</image>
	</g>
</g>
<g id="Rectangle_3_1_" enable-background="new    ">
	<g id="Rectangle_3">
		<g>
			<path fill-rule="evenodd" clip-rule="evenodd" fill="#0B4870" d="M154.32,516.48h411.36v-20.64H154.32V516.48z M563.28,286.8     H156.72c-1.326,0-2.4,1.075-2.4,2.4v11.52h411.36V289.2C565.68,287.875,564.605,286.8,563.28,286.8z"/>
		</g>
	</g>
</g>
<g id="Ellipse_1_1_" enable-background="new    ">
	<g id="Ellipse_1">
		<g>
			<circle fill-rule="evenodd" clip-rule="evenodd" fill="#CCE9FF" cx="360.12" cy="399.96" r="95.64"/>
		</g>
	</g>
</g>
<g id="Ellipse_1_copy_1_" enable-background="new    ">
	<g id="Ellipse_1_copy">
		<g>
			<circle fill-rule="evenodd" clip-rule="evenodd" fill="#2A94F4" cx="360" cy="399.84" r="83.04"/>
		</g>
	</g>
</g>
<g id="Ellipse_1_copy_4_2_" enable-background="new    ">
	<defs>
		<path id="SVGID_3_" enable-background="new    " d="M276.96,399.84c0,45.862,37.178,82.08,83.04,82.08s83.04-36.218,83.04-82.08    C400.286,399.61,333.503,400.075,276.96,399.84z"/>
	</defs>
	<clipPath id="SVGID_4_">
		<use xlink:href="#SVGID_3_" overflow="visible"/>
	</clipPath>
	<g clip-path="url(#SVGID_4_)">
		
			<image overflow="visible" width="3000" height="3000" id="Ellipse_1_copy_4_xA0_Image" xlink:href="E2D5E0E8D26BF792.png" transform="matrix(0.24 0 0 0.24 0 0)">
		</image>
	</g>
</g>
<g id="Ellipse_1_copy_3_1_" enable-background="new    ">
	<g id="Ellipse_1_copy_3">
		<g>
			<circle fill-rule="evenodd" clip-rule="evenodd" fill="#CCE9FF" cx="360.12" cy="399.96" r="68.28"/>
		</g>
	</g>
</g>
<g id="Ellipse_1_copy_2_1_" enable-background="new    ">
	<g id="Ellipse_1_copy_2">
		<g>
			<circle fill-rule="evenodd" clip-rule="evenodd" fill="#2A94F4" cx="360" cy="399.84" r="45.6"/>
		</g>
	</g>
</g>
<g id="Rounded_Rectangle_4_1_" enable-background="new    ">
	<g id="Rounded_Rectangle_4">
		<g>
			<path fill-rule="evenodd" clip-rule="evenodd" fill="#DD9B3C" d="M402,207.12h-83.76c-0.663,0-1.2,0.537-1.2,1.2v87.12     c0,0.663,0.537,1.2,1.2,1.2H402c0.663,0,1.2-0.537,1.2-1.2v-87.12C403.2,207.657,402.663,207.12,402,207.12z"/>
		</g>
	</g>
</g>
<g id="Rounded_Rectangle_4_copy_1_" enable-background="new    ">
	<g id="Rounded_Rectangle_4_copy">
		<g>
			<path fill-rule="evenodd" clip-rule="evenodd" fill="#FFBE55" d="M393.84,215.52H326.4c-0.663,0-1.2,0.537-1.2,1.2v70.08     c0,0.663,0.537,1.2,1.2,1.2h67.44c0.663,0,1.2-0.537,1.2-1.2v-70.08C395.04,216.057,394.503,215.52,393.84,215.52z"/>
		</g>
	</g>
</g>
<g id="Rounded_Rectangle_4_copy_2_1_" enable-background="new    ">
	<g id="Rounded_Rectangle_4_copy_2">
		<g>
			<path fill-rule="evenodd" clip-rule="evenodd" fill="#DD9B3C" d="M376.32,233.76h-32.16c-0.663,0-1.2,0.537-1.2,1.2v33.36     c0,0.663,0.537,1.2,1.2,1.2h32.16c0.663,0,1.2-0.537,1.2-1.2v-33.36C377.52,234.297,376.983,233.76,376.32,233.76z"/>
		</g>
	</g>
</g>
<g id="Ellipse_2_1_" enable-background="new    ">
	<g id="Ellipse_2">
		<g>
			<circle fill-rule="evenodd" clip-rule="evenodd" fill="#CCE9FF" cx="423.72" cy="269.4" r="7.8"/>
		</g>
	</g>
</g>
<g id="Shape_9_1_" enable-background="new    ">
	<g id="Shape_9">
		<g>
			<path fill-rule="evenodd" clip-rule="evenodd" fill="#CCE9FF" d="M346.845,372.057c-3.74,0.537-8.687,1.151-12.997,6.23     c-3.045,3.458-5.048,10.128-4.573,12.939c0,0,0.372,3.334,3.851,2.156c1.286-0.544,1.874-2.198,2.166-4.073     c0.33-3.643,2.327-6.459,3.851-7.907c1.524-1.448,2.612-2.868,8.905-3.115C352.32,377.196,350.585,371.52,346.845,372.057z"/>
		</g>
	</g>
</g>
</svg>