<svg xmlns="http://www.w3.org/2000/svg" xmlns:xlink="http://www.w3.org/1999/xlink" version="1.1" id="Layer_1" x="0px" y="0px" viewBox="0 0 1080 1080" enable-background="new 0 0 1080 1080" xml:space="preserve">
<path opacity="0.05" fill="#2A94F4" d="M159.647,578.11c0-212.077,171.923-384,384-384s384,171.923,384,384"/>
<ellipse fill="#F7F7F7" cx="550" cy="749.754" rx="382" ry="36.246"/>
<polygon opacity="0.3" fill="#2A94F4" points="180,581 312.5,484.716 431.701,581 "/>
<polygon opacity="0.3" fill="#2A94F4" points="400.973,581 533.473,484.716 652.674,581 "/>
<polygon opacity="0.3" fill="#2A94F4" points="270.946,581 403.446,523.216 522.647,581 "/>
<g>
	<g>
		<path fill="#0B4870" d="M717.898,435.316c0,0,58.38-11.542,76.276-31.397c10.786-11.967,28.414-40.242,32.449-46.789    c0.515-0.835,0.424-1.905-0.229-2.637c-0.418-0.468-0.915-0.993-1.409-1.44c-0.5-0.453-1.212-0.968-1.891-1.426    c-1.124-0.758-2.633-0.549-3.522,0.475c-6.569,7.561-32.615,37.264-39.888,41.339c-8.344,4.676-59.305,16.836-66.139,23.515    C706.71,423.635,706.349,435.005,717.898,435.316z"/>
		<polygon fill="#FAB9AF" points="736.244,523.125 715.303,417.914 674.279,414.571 659.217,526.605   "/>
		<path fill="#FFBE55" d="M713.836,689.177l0.703,11.95c0.143,2.431-0.054,4.87-0.585,7.247l-0.836,3.739    c-0.686,3.07,1.751,5.944,4.891,5.76c8.14-0.478,22.055-1.224,25.641-1.416c0.587-0.031,1.14-0.459,1.158-1.047    c0.11-3.506-10.098-5.287-17.852-7.807c-5.906-1.92-6.171-12.331-5.793-18.439c0.143-2.308-1.877-4.154-4.168-3.836l0,0    C715.098,685.59,713.723,687.266,713.836,689.177z"/>
		<path fill="#FFBE55" d="M657.698,688.91l-3.365,13.901c-0.149,0.614-0.389,1.203-0.712,1.745l-2.68,4.497    c-1.702,2.854-0.16,6.541,3.067,7.335c0,0,6,1.746,12.179,3.405c6.325,1.698,14.043-0.438,13.953-2.077    c-0.201-3.642-3.437-0.564-9.335-4.054c-1.977-1.169-4.017-2.394-5.847-3.674c-5.107-3.573-1.37-13.537,1.325-19.181    c0.969-2.029-0.31-4.412-2.532-4.759l-1.435-0.224C660.209,685.494,658.2,686.836,657.698,688.91z"/>
		<path fill="#0B4870" d="M690.944,526.653l44.908-6.275c0,0,6.354,32.587-1.77,92.659c-3.81,28.171-12.016,82.054-12.016,82.054    c-2.696,1.361-5.487,1.82-8.387,1.264c0,0-2.142-23.45-4.055-48.726c-1.835-24.241-3.399-50.164-5.413-58.563    C700.097,571.909,690.944,526.653,690.944,526.653z"/>
		<path fill="#0B4870" d="M700.289,526.711c6.037,24.742,18.504,61.551,0.397,97.774c-18.107,36.224-37.146,73.895-37.146,73.895    c-2.706,0.26-5.22-0.588-7.602-2.197c0,0,2.636-16.115,6.692-34.984c4.639-21.587,10.621-47.008,7.804-59.935    c-5.279-24.227-11.589-56.531-11.093-72.416C659.837,512.965,697.115,513.701,700.289,526.711z"/>
		<path fill="#FFBE55" d="M737.653,520.339l-22.35-102.425l-41.024-3.343l-15.863,110.33c-0.298,2.073,1.14,3.992,3.216,4.268    c7.659,1.018,26.11,3.011,46.574,1.882c15.276-0.843,23.698-4.286,27.499-6.383C737.246,523.82,738.028,522.058,737.653,520.339z"/>
		<path fill="#FAB9AF" d="M659.275,564.782c-0.77-2.634-1.253-5.358-1.667-6.37c-0.172-0.422-0.975-1.41-1.188-1.713    c-0.625-0.889-1.733-2.165-1.793-3.251l-0.328-4.557c-0.122-2.205-1.279-3.818-3.484-3.696l0,0    c-2.388,0.132-3.36,2.229-2.953,4.585l0.176,3.192c0.325,1.886-0.23,3.737-0.69,5.595c-0.937,3.78,0.254,8.12,1.535,11.513    c0.803,2.129,3.635,3.303,7.49,4.657c1.894,0.666,5.029,1.132,3.717-1.03c-1.1-1.812-6.798-4.246-5.462-10.215    c0.066-0.293,0.288-1.034,0.656-1.065c1.096-0.093,1.431,2.332,2.022,3.491c0.83,1.627,2.037,2.238,2.742,2.022    C660.795,567.712,659.825,566.662,659.275,564.782z"/>
		<path fill="#0B4870" d="M687.354,420.306c0.411,7.445-0.536,14.893-2.693,22.03c-4.219,13.963-10.254,40.258-4.562,62.818    c8.196,32.486,17.138,45.308,6.918,53.548c-10.22,8.24-31.334-3.405-32.158-7.629c-0.824-4.224,0.853-56.768,4.772-79.708    c3.919-22.94,16.602-56.307,16.602-56.307l6.17,0.317C685.072,415.512,687.207,417.639,687.354,420.306L687.354,420.306z"/>
		<path fill="#0B4870" d="M668.021,417.742c0,0-32.835,49.631-31.297,76.317c0.927,16.084,8.642,48.499,10.461,55.97    c0.232,0.953,1.057,1.641,2.036,1.691c0.627,0.032,1.35,0.047,2.014,0.011c0.674-0.037,1.541-0.181,2.344-0.342    c1.329-0.266,2.241-1.487,2.139-2.838c-0.759-9.987-3.571-49.393-1.356-57.43c2.541-9.221,29.721-54.012,29.776-63.567    C684.194,417.998,676.362,409.748,668.021,417.742z"/>
		<path fill="#0B4870" d="M704.173,417.007c0,0,7.903,14.872,6.649,36.934c-1.254,22.062-3.278,89.145,17.23,98.126    c6.494,2.844,20.143-12.09,19.853-17.335c-0.289-5.245-6.073-22.539-11.517-38.25c-5.443-15.711-19.935-78.475-19.935-78.475    L704.173,417.007z"/>
		<g>
			<path fill="#FAB9AF" d="M695.881,370.022c-9.087,0.501-12.12,7.157-11.634,19.132c0.182,4.485,2.443,8.814,4.222,11.559     c1.322,2.039,1.79,4.516,1.231,6.881l-1.623,6.863c-1.011,6.34,2.154,9.612,6.615,10.617c2.21,0.498,4.79-0.125,6.622-1.457     c2.178-1.585,2.191-4.734,1.625-7.368l-0.622-1.897c-0.838-2.556,0.512-5.435,3.104-6.153c6.912-1.916,7.513-9.265,8.762-20.696     C715.485,375.589,704.967,369.521,695.881,370.022z"/>
			<path fill="#0B4870" d="M716.751,363.6l-5.124,1.872c-1.883,0.688-3.925,0.813-5.877,0.362l-10.571-2.445     c-6.302,0.348-16.514,4.481-14.698,13.502l1.516,6.368c0.605,2.544,2.854,4.348,5.468,4.427c0.001,0,0.001,0,0.001,0     c0.29,0.876,1.13,1.448,2.051,1.398c1.126-0.062,1.989-1.025,1.927-2.152l0,0c-0.16-2.901,1.74-5.489,4.535-6.28     c3.428-0.971,7.126-1.361,11.064-0.532c7.339,1.544,14.717-3.358,15.028-10.851c0.02-0.474,0.017-0.955-0.01-1.441     C721.895,364.823,719.289,362.747,716.751,363.6z"/>
			<path fill="#FAB9AF" d="M689.268,389.099c0.153,2.774-0.756,5.08-3.427,5.228c-2.671,0.147-4.596-3.574-4.749-6.348     c-0.153-2.775,1.524-3.552,4.195-3.699C687.958,384.132,689.115,386.324,689.268,389.099z"/>
		</g>
		<path fill="#FAB9AF" d="M821.116,351.218c0,0,3.233-7.055,3.969-9.6c0.736-2.544,1.637-2.093,1.637-2.093s3.346-9.699,3.81-8.097    c0.464,1.602-0.953,7.689-0.953,7.689s3.422-8.326,3.983-7.23c0.561,1.096-2.505,9.054-2.505,9.054s4.249,0.364,3.284,4.173    c-0.966,3.809-9.178,11.523-9.178,11.523L821.116,351.218z"/>
	</g>
	<path fill="#E8948B" d="M688.835,401.338c0,0,7.302,8.956,15.677,7.225c0,0-1.708,0.935-2.059,2.322   C702.453,410.886,694.399,410.735,688.835,401.338z"/>
</g>
<g>
	<g>
		<path fill="#FFBE55" d="M520.928,440.215c0,0,58.38-11.542,76.276-31.397c10.786-11.967,28.414-40.242,32.449-46.789    c0.515-0.835,0.424-1.905-0.229-2.637c-0.418-0.468-0.915-0.993-1.409-1.44c-0.5-0.453-1.212-0.968-1.891-1.426    c-1.124-0.758-2.633-0.549-3.522,0.475c-6.569,7.561-32.615,37.264-39.888,41.339c-8.344,4.676-59.305,16.836-66.139,23.515    C509.741,428.533,509.38,439.903,520.928,440.215z"/>
		<polygon fill="#FAB9AF" points="548.775,523.125 527.834,417.914 486.81,414.571 471.748,526.605   "/>
		<path fill="#FFBE55" d="M526.366,689.177l0.703,11.95c0.143,2.431-0.054,4.87-0.585,7.247l-0.836,3.739    c-0.686,3.07,1.751,5.944,4.891,5.76c8.14-0.478,22.055-1.224,25.641-1.416c0.587-0.031,1.14-0.459,1.158-1.047    c0.11-3.506-10.098-5.287-17.852-7.807c-5.906-1.92-6.171-12.331-5.793-18.439c0.143-2.308-1.877-4.154-4.168-3.836l0,0    C527.629,685.59,526.254,687.266,526.366,689.177z"/>
		<path fill="#FFBE55" d="M470.229,688.91l-3.365,13.901c-0.149,0.614-0.389,1.203-0.712,1.745l-2.68,4.497    c-1.702,2.854-0.16,6.541,3.067,7.335c0,0,6,1.746,12.179,3.405c6.325,1.698,14.043-0.438,13.953-2.077    c-0.201-3.642-3.437-0.564-9.335-4.054c-1.977-1.169-4.017-2.394-5.847-3.674c-5.107-3.573-1.369-13.537,1.325-19.181    c0.969-2.029-0.31-4.412-2.532-4.759l-1.435-0.224C472.74,685.494,470.731,686.836,470.229,688.91z"/>
		<path fill="#0B4870" d="M503.475,526.653l44.908-6.275c0,0,6.354,32.587-1.77,92.659c-3.81,28.171-12.016,82.054-12.016,82.054    c-2.696,1.361-5.487,1.82-8.387,1.264c0,0-2.142-23.45-4.055-48.726c-1.835-24.241-3.399-50.164-5.413-58.563    C512.628,571.909,503.475,526.653,503.475,526.653z"/>
		<path fill="#0B4870" d="M512.82,526.711c6.037,24.742,18.504,61.551,0.397,97.774c-18.107,36.224-37.146,73.895-37.146,73.895    c-2.706,0.26-5.22-0.588-7.602-2.197c0,0,2.636-16.115,6.692-34.984c4.639-21.587,10.621-47.008,7.804-59.935    c-5.279-24.227-11.589-56.531-11.093-72.416C472.368,512.965,509.646,513.701,512.82,526.711z"/>
		<path fill="#FFBE55" d="M550.184,520.339l-22.35-102.425l-41.024-3.343l-15.863,110.33c-0.298,2.073,1.14,3.992,3.216,4.268    c7.659,1.018,26.11,3.011,46.574,1.882c15.276-0.843,23.698-4.286,27.5-6.383C549.777,523.82,550.559,522.058,550.184,520.339z"/>
		<path fill="#FAB9AF" d="M366.639,351.566c1.529,2.279,3.311,4.395,3.823,5.361c0.213,0.403,0.458,1.652,0.554,2.009    c0.282,1.05,0.552,2.718,1.347,3.459l3.289,3.171c1.615,1.506,2.112,3.428,0.606,5.043l0,0c-1.631,1.749-3.864,1.152-5.413-0.67    l-2.338-2.181c-1.24-1.458-3.017-2.218-4.738-3.055c-3.502-1.703-6.072-5.398-7.856-8.555c-1.12-1.981-0.207-4.907,1.223-8.735    c0.702-1.88,2.353-4.587,3.172-2.194c0.687,2.006-1.096,7.94,4.344,10.739c0.267,0.137,0.978,0.441,1.238,0.179    c0.774-0.782-0.874-2.593-1.385-3.79c-0.717-1.68-0.414-2.998,0.204-3.4C365.363,348.522,365.548,349.94,366.639,351.566z"/>
		<path fill="#FFBE55" d="M485.14,439.059c0,0-59.144-6.588-78.647-24.866c-11.755-11.017-31.701-37.708-36.272-43.892    c-0.583-0.789-0.583-1.863,0.006-2.647c0.377-0.502,0.828-1.067,1.282-1.553c0.46-0.493,1.126-1.067,1.764-1.581    c1.056-0.85,2.578-0.768,3.55,0.176c7.182,6.981,35.636,34.387,43.226,37.836c8.708,3.957,60.512,11.785,67.884,17.865    C495.305,426.477,496.621,437.776,485.14,439.059z"/>
		<g>
			<path fill="#FAB9AF" d="M508.412,370.022c-9.087,0.501-12.12,7.157-11.634,19.132c0.182,4.485,2.443,8.814,4.222,11.559     c1.322,2.039,1.79,4.516,1.231,6.881l-1.623,6.863c-1.011,6.34,2.154,9.612,6.615,10.617c2.21,0.498,4.79-0.125,6.622-1.457     c2.178-1.585,2.191-4.734,1.625-7.368l-0.622-1.897c-0.838-2.556,0.512-5.435,3.104-6.153c6.912-1.916,7.513-9.265,8.762-20.696     C528.016,375.589,517.498,369.521,508.412,370.022z"/>
			<path fill="#0B4870" d="M529.282,363.6l-5.124,1.872c-1.883,0.688-3.925,0.813-5.878,0.362l-10.571-2.445     c-6.302,0.348-16.514,4.481-14.698,13.502l1.516,6.368c0.605,2.544,2.854,4.348,5.468,4.427c0.001,0,0.001,0,0.001,0     c0.29,0.876,1.13,1.448,2.051,1.398c1.126-0.062,1.989-1.025,1.927-2.152l0,0c-0.16-2.901,1.74-5.489,4.535-6.28     c3.428-0.971,7.126-1.361,11.064-0.532c7.339,1.544,14.717-3.358,15.028-10.851c0.02-0.474,0.017-0.955-0.01-1.441     C534.426,364.823,531.82,362.747,529.282,363.6z"/>
			<path fill="#FAB9AF" d="M501.799,389.099c0.153,2.774-0.756,5.08-3.427,5.228c-2.671,0.147-4.596-3.574-4.749-6.348     c-0.153-2.775,1.524-3.552,4.195-3.699C500.489,384.132,501.646,386.324,501.799,389.099z"/>
		</g>
		<path fill="#FAB9AF" d="M623.301,358.448c0,0,3.233-7.055,3.969-9.6c0.736-2.544,1.637-2.093,1.637-2.093s3.346-9.699,3.81-8.097    c0.464,1.602-0.953,7.689-0.953,7.689s3.422-8.326,3.983-7.23s-2.505,9.054-2.505,9.054s4.249,0.364,3.284,4.173    c-0.966,3.809-9.178,11.523-9.178,11.523L623.301,358.448z"/>
	</g>
	<path fill="#E8948B" d="M501.366,401.338c0,0,7.302,8.956,15.677,7.225c0,0-1.708,0.935-2.059,2.322   C514.984,410.886,506.93,410.735,501.366,401.338z"/>
</g>
<g>
	<path fill="#FA968C" d="M782.114,679.564c0,0-5.806,17.125-6.999,19.961c-0.985,2.342-3.098,3.912-5.101,5.475   c-0.641,0.5-1.279,1.63-1.82,2.581c-0.435,0.765-0.408,1.668-0.06,2.476c6.079,14.115,22.537,19.019,22.855,17.916   c0.575-1.989-2.036-5.783-5.527-7.561c-3.514-1.79-5.686-5.451-6.053-9.378l0,0c-0.291-3.124,0.228-6.27,1.506-9.135l5.888-12.839   L782.114,679.564z"/>
	<path fill="#FA968C" d="M806.479,699.256l5.015,17.674c1.533,5.403,1.075,11.188-1.284,16.285   c-0.001,0.002-0.001,0.002-0.001,0.002c-1.325,2.85,0.178,6.207,3.193,7.099c9.742,2.882,28.627,8.342,29.414,7.596   c4.014-3.801-7.442-9.068-16.01-14.799c-5.779-3.865-8.972-23.181-10.287-38.059l-8.701,2.708   C807.141,697.993,806.634,698.559,806.479,699.256z"/>
	<path fill="#0B4870" d="M825.209,738.306c4.028,1.084,8.388,1.266,12.389,1.536c0.459,0.031,0.905,0.184,1.283,0.445   c3.976,2.743,6.063,5.609,3.934,7.625c-0.855,0.81-23.047-5.697-31.704-8.276c-1.81-0.539-2.7-2.555-1.904-4.267l1.451-3.119   C815.251,734.832,820.106,736.933,825.209,738.306z"/>
	<path fill="#0B4870" d="M803.003,499.635c-10.443,2.017-18.739,14.642-16.143,28.084c1.492,7.724,10.271,35.185,19.451,56.77   c3.523,8.284,2.804,17.935-2.541,25.179c-0.871,1.18-1.616,2.392-2.194,3.614c-2.984,6.299-13.774,43.131-19.95,67.652   c0.771,3.123,2.875,7.018,5.314,8.281c12.074-21.198,31.481-59.752,34.654-66.451c1.762-3.721,3.675-8.017,5.024-12.026   c7.924-11.785,2.784-74.899,0.375-87.372C824.397,509.923,813.447,497.618,803.003,499.635z"/>
	
		<ellipse transform="matrix(0.9985 -0.0551 0.0551 0.9985 -22.1195 44.7961)" fill="#0B4870" cx="801.69" cy="423.72" rx="16.224" ry="20.93"/>
	<path fill="#0B4870" d="M797.924,426.091c-0.896-11.553-10.797-20.759-22.385-20.783c-10.28-0.021-18.781,6.746-21.599,15.895   c-0.987,3.206-3.954,5.421-7.306,5.556c-1.393,0.056-2.815,0.262-4.256,0.641c-8.37,2.202-14.549,9.715-14.966,18.36   c-0.377,7.797,3.636,14.553,9.685,18.2c2.58,1.555,4.15,4.283,4.726,7.24c2.668,13.682,15.815,23.114,30.09,20.75   c12.208-2.022,21.48-12.672,21.846-25.04c0.224-7.587-2.75-14.371-7.592-19.262C793.734,443.548,798.637,435.29,797.924,426.091z"/>
	<path fill="#0B4870" d="M800.16,395.966c0,0,9.432,5.233,8.749,13.022c0,0,4.678-3.716,5.124-15.652   C814.343,385.066,800.16,395.966,800.16,395.966z"/>
	<g>
		<path fill="#FAB9AF" d="M819.153,441.99c0,0,0.028,0.403,0.081,1.158c0.007,0.094,0.014,0.194,0.021,0.3    c0.011,0.066,0.023,0.135,0.035,0.207c0.021,0.143,0.043,0.3,0.067,0.469c0.05,0.329,0.153,0.809,0.281,1.239    c0.259,0.906,0.693,1.777,1.384,2.5c0.373,0.344,0.797,0.694,1.395,0.984c0.601,0.286,1.338,0.539,2.213,0.715    c0.89,0.154,1.896,0.239,2.989,0.246c1.104-0.02,2.279-0.095,3.516-0.263c2.472-0.343,5.155-0.939,7.919-1.758    c5.544-1.621,11.388-4.067,17.155-6.718c11.535-5.362,22.636-11.901,30.75-17.071c4.066-2.581,7.408-4.807,9.704-6.416    c2.301-1.605,3.569-2.57,3.569-2.57c0.571-0.435,1.387-0.325,1.822,0.247c0.413,0.542,0.335,1.304-0.162,1.752l-0.016,0.014    c0,0-4.871,4.371-12.697,10.197c-7.845,5.801-18.575,13.185-30.077,19.545c-5.753,3.181-11.73,6.035-17.698,8.195    c-2.986,1.073-5.985,1.957-8.99,2.514c-1.503,0.28-3.018,0.462-4.523,0.56c-1.518,0.071-3.038,0.035-4.547-0.154    c-1.517-0.214-3.025-0.603-4.448-1.199c-1.429-0.599-2.729-1.479-3.819-2.444c-2.172-2.005-3.305-4.314-3.905-6.081    c-0.311-0.91-0.504-1.663-0.656-2.41c-0.066-0.372-0.127-0.717-0.182-1.032c-0.026-0.157-0.05-0.307-0.073-0.45    c-0.011-0.105-0.022-0.204-0.033-0.299c-0.082-0.753-0.126-1.154-0.126-1.154l-0.001-0.01c-0.273-2.495,1.529-4.74,4.024-5.013    c2.495-0.273,4.74,1.529,5.013,4.024C819.143,441.867,819.149,441.938,819.153,441.99z"/>
	</g>
	<path fill="#2A94F4" d="M815.168,482.538c3.041-11.191,9.094-34.869,8.047-42.441c-0.671-4.852-4.948-8.358-9.838-8.088   l-31.725,1.75c-5.26,0.29-9.334,4.698-9.197,9.964c0.239,9.203,5.626,29.882,8.61,40.696L815.168,482.538z"/>
	<path fill="#0B4870" d="M816.538,698.927c0.481-0.331,0.729-0.913,0.68-1.496c-1.958-23.296-5.017-52.961-5.845-58.633   c-0.095-0.649-0.208-1.287-0.338-1.914c3.479-27.859,0.964-87.199,0.887-97.612c-0.1-13.691-9.173-28.644-19.81-28.566   c-10.636,0.078-21.545,11.693-24.262,24.391c-1.793,8.38,9.321,51.834,20.496,83.154c2.352,6.593,3.052,13.626,2.436,20.599   c-0.426,4.823-0.361,9.763,0.187,13.513c0.815,5.581,8.358,28.077,15.329,47.31c0.202,0.557,0.678,0.98,1.263,1.075   C810.648,701.252,813.815,700.8,816.538,698.927z"/>
	<path fill="#2A94F4" d="M778.206,498.552c1.387-4.698,1.608-9.656,0.652-14.46c-2.22-11.156-6.186-32.182-6.424-41.187   c-0.127-4.815,3.6-8.836,8.409-9.101l4.704-0.259c2.021,4.057,5.994,7.057,11.897,6.732c5.893-0.325,9.513-3.745,11.079-7.999   l4.417-0.244c-4.234,10.543-1.76,24.005,6.935,31.461c-1.236,5.509-2.225,11.039-2.947,15.517   c-0.978,6.066-0.056,12.278,2.617,17.811c4.592,9.507,8.665,24.935,8.05,31.172c-32.851,11.3-56.852-4.168-56.852-4.168   L778.206,498.552z"/>
	<g>
		<polygon fill="#FAB9AF" points="802.302,434.81 787.827,434.092 791.512,418.092 800.884,418.731   "/>
	</g>
	<path fill="#FA968C" d="M800.884,418.731l-9.372-0.639l-1.15,4.995c2.213,2.235,5.171,7.162,8.559,6.975   c1.074-0.059,2.037-0.416,2.887-1.024L800.884,418.731z"/>
	<path fill="#FAB9AF" d="M801.625,426.326c-3.161,0.173-6.667-1.219-11.602-5.073c-2.834-2.213-5.064-6.221-5.218-9.004   l-0.849-15.389l23.694-1.307c0,0,2.229,8.073,0.95,16.277C807.641,417.985,804.111,426.19,801.625,426.326z"/>
	<path fill="#FAB9AF" d="M788.662,409.117c0.166,3.003-1.138,5.516-2.911,5.614c-1.773,0.098-3.945-3.73-4.111-6.733   c-0.166-3.003,1.738-4.043,3.511-4.141C786.925,403.759,788.497,406.114,788.662,409.117z"/>
	<path fill="#0B4870" d="M781.138,398.885c-0.265-4.806,3.417-8.916,8.223-9.179l7.997-0.438c2.287-0.125,4.473-0.846,6.357-2.057   c2.734-1.757,6.33-1.42,8.399,1.085c2.236,2.708,3.345,6.438-1.738,10.229c-2.527,1.884-6.468,0.169-8.977,1.145   c-0.158,0.002-0.3-0.016-0.464-0.007l-7.049,0.389c-2.45,0.135-4.213,2.241-4.149,4.693c0.041,1.551-1.16,2.863-2.72,2.949   l-0.313,0.017l-1.328-3.554l-3.643,5.523L781.138,398.885z"/>
	<path fill="#FAB9AF" d="M900.774,407.661c0,0-3.797,7.446-1.908,9.359c1.889,1.912,3.507,2.85,6.393,0.206   c2.886-2.644,5.586-7.648,6.604-10.972c1.018-3.324,0.372-9.616-0.141-10.243c-1.871-2.286-3.083,3.929-3.816,6.91   c-0.734,2.981-1.859,6.275-3.193,5.516c-1.335-0.759,0.5-6.362-0.742-7.737C902.728,399.323,900.774,407.661,900.774,407.661z"/>
	<path fill="#FAB9AF" d="M832.069,503.601c0,0-8.311-0.89-9.424,1.556c-1.113,2.447-1.411,4.293,2.089,6.046   c3.5,1.753,9.138,2.49,12.607,2.255s9.116-3.083,9.519-3.787c1.468-2.563-4.77-1.478-7.817-1.1   c-3.047,0.378-6.525,0.503-6.292-1.015c0.233-1.518,6.122-1.803,6.963-3.454C840.555,502.452,832.069,503.601,832.069,503.601z"/>
	<path fill="#0B4870" d="M805.869,395.38c-0.6,3.56,0.678,5.418-10.544,11.541c-11.221,6.123-14.999,3.98-18.272,10.086   c0,0,1.034-9.873,7.214-13.583c6.18-3.71,17.098-6.514,20.208-14.487C804.476,388.937,806.28,392.947,805.869,395.38z"/>
	<g>
		<path fill="#FAB9AF" d="M782.468,446.867c0,0-0.239,0.366-0.688,1.052c-0.457,0.713-1.121,1.784-1.952,3.164    c-1.657,2.76-3.903,6.811-6.218,11.802c-1.148,2.498-2.279,5.245-3.285,8.185c-0.984,2.943-1.883,6.07-2.431,9.31    c-0.534,3.231-0.736,6.583-0.244,9.767c0.46,3.195,1.657,6.162,3.612,8.643c0.968,1.249,2.139,2.368,3.472,3.331    c0.634,0.517,1.374,0.92,2.069,1.375c0.75,0.385,1.463,0.826,2.256,1.151c3.093,1.419,6.473,2.346,9.835,2.94    c3.366,0.607,6.719,0.915,9.918,1.073c3.203,0.149,6.259,0.122,9.084,0.022c2.824-0.112,5.424-0.244,7.726-0.444    c2.305-0.154,4.309-0.412,5.965-0.565c3.308-0.392,5.198-0.616,5.198-0.616l0.029-0.003c0.713-0.085,1.36,0.425,1.445,1.138    c0.079,0.668-0.369,1.279-1.011,1.423c0,0-0.47,0.104-1.352,0.299c-0.883,0.188-2.174,0.495-3.828,0.83    c-1.661,0.302-3.667,0.739-5.998,1.101c-2.324,0.395-4.961,0.802-7.861,1.114c-2.9,0.317-6.061,0.581-9.436,0.673    c-3.375,0.076-6.964,0.036-10.703-0.382c-3.732-0.435-7.627-1.226-11.49-2.719c-0.973-0.339-1.915-0.825-2.875-1.259    c-0.931-0.517-1.892-0.986-2.786-1.612c-1.828-1.165-3.553-2.606-5.042-4.291c-1.496-1.675-2.771-3.578-3.737-5.604    c-0.973-2.027-1.606-4.161-2.029-6.274c-0.846-4.246-0.745-8.4-0.289-12.262c0.48-3.866,1.328-7.476,2.359-10.792    c1.03-3.315,2.187-6.36,3.358-9.112c2.329-5.513,4.744-9.84,6.477-12.852c0.871-1.505,1.604-2.664,2.114-3.461    c0.534-0.814,0.82-1.249,0.82-1.249c1.377-2.098,4.194-2.682,6.292-1.305c2.098,1.377,2.682,4.194,1.305,6.292L782.468,446.867z"/>
	</g>
	<path fill="#0B4870" d="M803.689,396.158c0,0,1.091,11.819,11.753,16.936c0,0-5.055-8.699-5.067-14.569   S802.783,392.151,803.689,396.158z"/>
	<path fill="#0B4870" d="M764.548,714.375c-0.728-0.75-0.806-1.912-0.178-2.747c0.514-0.682,1.877-2.551,2.901-3.954   c0.445-0.609,1.351-0.524,1.714,0.138c4.103,7.492,10.577,13.153,18.648,13.814c2.696,1.613,4.57,5.488,4.115,7.062   c-0.107,0.369-3.659,0.616-7.514-1.317C767.116,718.788,764.548,714.375,764.548,714.375z"/>
</g>
<g>
	<path fill="#FA968C" d="M646.131,677.153c0,0,2.501,17.908,2.708,20.978c0.171,2.535-1.012,4.887-2.1,7.182   c-0.348,0.735-0.411,2.03-0.467,3.124c-0.045,0.878,0.384,1.674,1.058,2.239c11.77,9.883,28.677,6.875,28.466,5.746   c-0.379-2.035-4.415-4.253-8.334-4.274c-3.943-0.021-7.529-2.318-9.619-5.662l0,0c-1.663-2.66-2.612-5.705-2.755-8.839   l-0.503-14.115L646.131,677.153z"/>
	<path fill="#FA968C" d="M579.358,691.903l3.079,18.111c0.941,5.537-0.138,11.238-3.033,16.052   c-0.001,0.002-0.001,0.002-0.001,0.002c-1.625,2.69-0.492,6.19,2.408,7.402c9.375,3.916,27.56,11.381,28.423,10.725   c4.4-3.346-6.421-9.818-14.321-16.439c-5.328-4.466-6.419-24.014-6.121-38.947l-8.943,1.754   C580.153,690.719,579.587,691.227,579.358,691.903z"/>
	<path fill="#0B4870" d="M593.767,732.745c3.888,1.512,8.202,2.163,12.151,2.864c0.453,0.08,0.879,0.28,1.227,0.581   c3.656,3.156,5.422,6.23,3.089,8.005c-0.938,0.713-22.298-8.15-30.626-11.648c-1.742-0.731-2.409-2.831-1.432-4.448l1.779-2.944   C584.242,728.217,588.841,730.83,593.767,732.745z"/>
	<path fill="#0B4870" d="M584.008,507.002c-8.426,6.491-10.169,21.497-1.814,32.342c4.801,6.232,24.976,26.828,42.87,41.992   c6.868,5.82,10.558,14.767,9.035,23.639c-0.248,1.445-0.37,2.863-0.338,4.214c0.162,6.968,7.059,44.723,12.551,69.407   c2.092,2.444,5.72,4.98,8.466,5.014c1.27-24.363,1.3-67.525,1.128-74.936c-0.096-4.116-0.316-8.813-0.911-13.002   c1.789-14.088-31.143-68.175-38.895-78.238C607.743,506.588,592.434,500.51,584.008,507.002z"/>
	
		<ellipse transform="matrix(0.606 -0.7954 0.7954 0.606 -87.5425 631.8447)" fill="#0B4870" cx="594.099" cy="404.3" rx="20.93" ry="16.224"/>
	<path fill="#0B4870" d="M605.792,389.701c0,0,8.812,6.22,7.294,13.89c0,0,5.052-3.19,6.783-15.008   C621.068,380.395,605.792,389.701,605.792,389.701z"/>
	<g>
		<path fill="#FAB9AF" d="M617.942,433.829c0,0,0.314,0.252,0.903,0.725c0.139,0.108,0.33,0.273,0.474,0.372    c0.148,0.106,0.31,0.223,0.484,0.348c0.328,0.254,0.778,0.548,1.292,0.878c2.029,1.299,5.17,2.903,9.301,3.755    c2.057,0.429,4.35,0.669,6.771,0.578c2.418-0.085,4.966-0.482,7.442-1.294c2.467-0.812,4.858-2.074,6.749-3.782    c1.898-1.705,3.198-3.851,3.56-6.215c0.389-2.364-0.234-4.985-1.519-7.419c-1.259-2.453-3.153-4.682-5.154-6.681    c-4.08-3.989-8.763-6.995-12.839-9.378c-2.062-1.168-3.976-2.218-5.705-3.093c-1.729-0.878-3.256-1.611-4.525-2.194    c-1.26-0.603-2.277-1.021-2.958-1.333c-0.685-0.304-1.051-0.466-1.051-0.466l-0.026-0.011c-0.656-0.291-0.953-1.059-0.662-1.715    c0.275-0.622,0.984-0.919,1.615-0.702c0,0,0.384,0.133,1.103,0.383c0.716,0.258,1.782,0.597,3.114,1.103    c1.339,0.486,2.956,1.102,4.8,1.854c1.84,0.758,3.911,1.643,6.128,2.717c4.41,2.188,9.531,4.953,14.422,9.092    c2.41,2.099,4.817,4.507,6.7,7.58c0.939,1.529,1.753,3.217,2.29,5.068c0.539,1.846,0.786,3.86,0.622,5.88    c-0.157,2.019-0.726,4.019-1.611,5.813c-0.888,1.798-2.085,3.372-3.409,4.732c-2.67,2.716-5.84,4.579-9.026,5.852    c-6.412,2.541-12.937,2.767-18.312,1.921c-5.42-0.815-9.668-2.805-12.431-4.413c-0.688-0.404-1.306-0.776-1.865-1.166    c-0.275-0.186-0.53-0.358-0.763-0.516c-0.24-0.162-0.371-0.27-0.534-0.388c-0.607-0.45-0.93-0.689-0.93-0.689    c-2.017-1.495-2.44-4.341-0.945-6.358c1.495-2.017,4.341-2.44,6.358-0.945C617.845,433.752,617.901,433.796,617.942,433.829z"/>
	</g>
	<path fill="#2A94F4" d="M611.374,477.387c4.231-10.798,12.802-33.684,12.578-41.325c-0.144-4.896-4.018-8.843-8.908-9.102   l-31.729-1.683c-5.261-0.279-9.786,3.664-10.218,8.914c-0.755,9.176,2.37,30.315,4.17,41.387L611.374,477.387z"/>
	<path fill="#0B4870" d="M589.394,692.661c0.514-0.277,0.823-0.829,0.837-1.414c0.566-23.372,0.726-53.193,0.514-58.921   c-0.024-0.656-0.068-1.302-0.129-1.939c6.463-27.321,10.364-86.586,11.411-96.946c1.377-13.622-6.03-29.466-16.613-30.536   c-10.583-1.07-22.681,9.301-26.751,21.632c-2.686,8.137,3.676,52.537,11.406,84.88c1.627,6.809,1.564,13.876,0.2,20.742   c-0.944,4.748-1.412,9.667-1.272,13.454c0.208,5.637,5.281,28.815,10.136,48.687c0.141,0.575,0.569,1.047,1.14,1.205   C583.288,694.337,586.485,694.229,589.394,692.661z"/>
	<path fill="#2A94F4" d="M572.9,489.32c1.886-4.521,2.64-9.426,2.208-14.306c-1.004-11.33-2.678-32.661-1.943-41.639   c0.393-4.801,4.532-8.396,9.342-8.141l4.705,0.25c1.572,4.251,5.198,7.663,11.102,7.976c5.894,0.313,9.862-2.697,11.877-6.757   l4.418,0.234c-5.347,10.024-4.339,23.675,3.501,32.026c-1.823,5.344-3.403,10.735-4.603,15.109   c-1.626,5.925-1.38,12.201,0.68,17.989c3.54,9.947,5.925,25.724,4.64,31.858c-33.878,7.69-56.071-10.276-56.071-10.276   L572.9,489.32z"/>
	<g>
		<polygon fill="#2A94F4" points="603.731,428.55 589.418,426.274 594.807,410.765 604.056,412.411   "/>
	</g>
	<path fill="#FAB9AF" d="M603.974,420.042c-3.161-0.169-6.496-1.931-10.987-6.295c-2.578-2.505-4.364-6.731-4.216-9.514   l0.816-15.391l23.697,1.257c0,0,1.345,8.267-0.811,16.285C610.854,412.398,606.459,420.175,603.974,420.042z"/>
	<path fill="#FAB9AF" d="M592.943,401.535c-0.159,3.003-1.726,5.361-3.499,5.267c-1.773-0.094-3.52-4.134-3.361-7.137   c0.159-3.003,2.164-3.832,3.937-3.738C591.793,396.021,593.102,398.532,592.943,401.535z"/>
	<path fill="#0B4870" d="M586.566,390.551c0.255-4.806,4.359-8.495,9.165-8.239l7.998,0.427c2.287,0.122,4.538-0.359,6.542-1.359   c2.907-1.451,6.446-0.729,8.233,1.985c1.931,2.933,2.631,6.761-2.832,9.981c-2.716,1.601-6.448-0.53-9.048,0.17   c-0.158-0.015-0.296-0.048-0.46-0.057l-7.049-0.374c-2.45-0.13-4.43,1.773-4.631,4.219c-0.127,1.546-1.462,2.721-3.022,2.638   l-0.313-0.017l-0.937-3.677l-4.217,5.097L586.566,390.551z"/>
	<path fill="#FAB9AF" d="M617.426,394.327c0,0,1.713,5.265,3.493,5.275c1.78,0.01,2.977-0.31,3.089-2.9   c0.112-2.591-0.97-6.198-2.052-8.231s-4.332-4.675-4.867-4.728c-1.947-0.193,0.399,3.284,1.452,5.023   c1.054,1.739,2.071,3.808,1.091,4.078c-0.98,0.271-2.748-3.212-3.974-3.274C614.433,389.509,617.426,394.327,617.426,394.327z"/>
	<path fill="#FAB9AF" d="M585.926,507.059c0,0,4.45-7.075,2.741-9.15c-1.709-2.074-3.237-3.153-6.349-0.779   c-3.112,2.375-6.25,7.116-7.563,10.335c-1.313,3.219-1.234,9.543-0.779,10.215c1.658,2.445,3.423-3.637,4.421-6.54   c0.999-2.903,2.414-6.083,3.676-5.207s-1.069,6.292,0.045,7.773C583.232,515.187,585.926,507.059,585.926,507.059z"/>
	<path fill="#0B4870" d="M611.531,389.735c-0.981,3.474,0.089,5.459-11.727,10.336c-11.816,4.877-15.34,2.339-19.253,8.056   c0,0,2.093-9.704,8.637-12.726c6.544-3.022,17.701-4.632,21.653-12.223C610.841,383.178,612.202,387.36,611.531,389.735z"/>
	<g>
		<path fill="#FAB9AF" d="M584.151,433.438c0,0-0.224,0.243-0.643,0.699c-0.432,0.488-1.065,1.204-1.871,2.115    c-1.616,1.84-3.843,4.569-6.392,7.92c-1.268,1.68-2.591,3.535-3.913,5.536c-1.312,2.007-2.668,4.134-3.923,6.396    c-1.264,2.258-2.442,4.643-3.426,7.114c-0.495,1.234-0.942,2.49-1.312,3.757c-0.395,1.265-0.705,2.54-0.946,3.817    c-0.474,2.552-0.586,5.108-0.206,7.505c0.369,2.401,1.268,4.618,2.558,6.563c1.313,1.931,2.985,3.607,4.816,4.972    c1.828,1.372,3.787,2.448,5.661,3.333c1.873,0.893,3.691,1.568,5.313,2.139c1.635,0.544,3.084,0.979,4.294,1.289    c1.201,0.341,2.166,0.549,2.819,0.712c0.655,0.157,1.004,0.241,1.004,0.241l0.045,0.011c0.698,0.168,1.129,0.87,0.961,1.569    c-0.155,0.643-0.762,1.058-1.402,0.989c0,0-0.368-0.039-1.057-0.112c-0.689-0.084-1.707-0.153-2.992-0.365    c-1.289-0.177-2.849-0.455-4.639-0.831c-1.78-0.418-3.81-0.875-5.964-1.671c-2.157-0.773-4.48-1.76-6.81-3.173    c-2.321-1.41-4.662-3.264-6.643-5.691c-1.942-2.449-3.456-5.462-4.217-8.685c-0.78-3.219-0.876-6.567-0.542-9.77    c0.327-3.212,1.082-6.305,2.06-9.211c0.967-2.917,2.134-5.671,3.384-8.253c2.478-5.184,5.36-9.636,7.928-13.351    c2.57-3.72,4.956-6.624,6.65-8.651c0.848-1.013,1.547-1.789,2.031-2.323c0.505-0.547,0.774-0.838,0.774-0.838    c1.703-1.844,4.578-1.958,6.421-0.255c1.844,1.703,1.958,4.578,0.255,6.421L584.151,433.438z"/>
	</g>
	<path fill="#0B4870" d="M609.28,390.272c0,0-0.191,11.868,9.858,18.105c0,0-4.087-9.194-3.466-15.031   C616.293,387.509,608.811,386.191,609.28,390.272z"/>
	<path fill="#0B4870" d="M646.066,716.145c-0.987-0.343-1.579-1.347-1.392-2.375c0.153-0.84,0.531-3.122,0.817-4.836   c0.124-0.744,0.972-1.075,1.593-0.646c7.03,4.852,15.357,7.003,22.865,3.97c3.133,0.231,6.548,2.852,6.848,4.462   c0.07,0.378-2.993,2.193-7.306,2.197C650.342,718.935,646.066,716.145,646.066,716.145z"/>
</g>
<g>
	<path fill="#2A94F4" d="M896.948,415.441c-1.905,0.105-3.535-1.354-3.64-3.259l-1.665-30.184c-0.105-1.905,1.354-3.535,3.259-3.64   l11.939-0.658c1.905-0.105,3.535,1.354,3.64,3.259l1.665,30.184c0.105,1.905-1.354,3.535-3.259,3.64L896.948,415.441z"/>
	<polygon fill="#7BE0FF" points="910.647,408.609 910.647,408.609 894.506,409.499 894.506,409.499 892.933,380.973    892.933,380.973 909.074,380.083 909.074,380.083  "/>
	<circle fill="#7BE0FF" cx="902.729" cy="411.814" r="1.691"/>
</g>
<circle opacity="0.6" fill="#FFBE55" cx="377.333" cy="470.588" r="29.667"/>
<ellipse fill="#F7F7F7" cx="329.64" cy="823.667" rx="58.694" ry="3.333"/>
<ellipse fill="#F7F7F7" cx="566.612" cy="845.667" rx="71.054" ry="4"/>
<ellipse fill="#F7F7F7" cx="827.333" cy="822" rx="71" ry="1.667"/>
<circle fill="#0B4870" cx="526" cy="364.006" r="12.833"/>
<circle fill="#0B4870" cx="511.283" cy="364.006" r="9.917"/>
</svg>