<svg xmlns="http://www.w3.org/2000/svg" xmlns:xlink="http://www.w3.org/1999/xlink" version="1.1" id="Layer_2" x="0px" y="0px" viewBox="0 0 1080 1080" style="enable-background:new 0 0 1080 1080;" xml:space="preserve" width="1080" height="1080">
<style type="text/css">
	.st0{fill:none;stroke:#D3D3D3;stroke-miterlimit:10;stroke-dasharray:11.8402,11.8402;}
	.st1{fill:#CAEDFF;}
	.st2{fill:#F7F7F7;}
	.st3{fill:#F2F2F2;}
	.st4{fill:#B0E1FF;}
	.st5{fill:#094C66;}
	.st6{fill:#FFE3CA;}
	.st7{fill:#1371B7;}
	.st8{fill:#FFD5B3;}
	.st9{fill:#0B577C;}
	.st10{fill:#EA8D1F;}
	.st11{fill:#FFA42C;}
	.st12{fill:#1A87D8;}
	.st13{fill:#2A94F4;}
	.st14{fill:#CCE9FF;}
</style>
<g>
	<circle class="st0" cx="230.1" cy="256.2" r="131.9"/>
</g>
<path class="st1" d="M723.9,262h275c0,0-37.1-15.6-57.9-11.9c-12.3-9-35.1-17.9-49.3-13.4c-9.2-11.2-34.8-45.1-80.7-9.9  c-8.5-3.2-50,0.1-57.5,17.7c-12.5-3.4-55-3.4-66.6,17.5C701.9,262,723.9,262,723.9,262z"/>
<g>
	<path class="st2" d="M290.5,191.8c-25.4,11.2-50.6,24.8-68.3,46.3s-26.6,52.3-16,78.1c14.2,34.5,59.3,54.5,59.5,91.8   c0.1,26.7-24.3,47.2-49,56.9s-52,13.2-74.4,27.4c-33.9,21.4-49.7,62.9-56.2,102.7c-6.7,41.3-4,88.4,25,118.4   c36,37.3,95.6,33.1,146.5,25.1c68-10.6,135.8-23.1,203.5-35.5c148.4-27.3,296.9-54.6,445.3-82c15.9-2.9,32.5-6.1,45.4-15.9   c25.7-19.5,27.9-59.7,12.9-88.4c-14.9-28.7-42.5-48.2-70-65.1c-27.4-16.9-56.4-32.9-76.9-57.8c-20.5-24.9-30.8-61.9-15.2-90.2   c13.2-24.1,41.5-36.9,53.8-61.4c16.3-32.3-2.4-73.5-31.9-94.1S424.5,132.7,290.5,191.8z"/>
</g>
<path class="st3" d="M1024.1,1008H55.9c-6.3,0-11.4-5.1-11.4-11.4v-56.8c0-6.3,5.1-11.4,11.4-11.4h968.2c6.3,0,11.4,5.1,11.4,11.4  v56.8C1035.5,1002.9,1030.4,1008,1024.1,1008z"/>
<path class="st4" d="M93.5,393H473c0,0-51.2-21.5-79.9-16.4c-17-12.4-48.5-24.7-68-18.5c-12.6-15.5-48.1-62.2-111.3-13.6  c-11.7-4.4-69,0.2-79.3,24.4c-17.2-4.7-75.9-4.7-91.9,24.2C63.2,393,93.5,393,93.5,393z"/>
<g>
	<path class="st5" d="M432.3,264h-29.5c-1,0-1.7-0.8-1.7-1.7v-76.5c0-1,0.8-1.7,1.7-1.7h29.5c1,0,1.7,0.8,1.7,1.7v76.5   C434,263.2,433.2,264,432.3,264z"/>
	<path class="st5" d="M566,922c3,4,38,20,42,21s-4,6-4,6c-9,0-56,0-56,0s-8.9-13,5.6-27C560.4,922,566,922,566,922z"/>
	<path class="st6" d="M573,903l-5,22c0,0-10,6-15,0c-2-10,0-26,0-26L573,903z"/>
	<path class="st5" d="M470,902.1c3,17.7,1,28.4,7,43.5c1.7,4.2,7,10.6,8,13.3c0,4.4-22.8,1.4-27-3.5c-6-7.1-24-45.3-1.3-60.7   C459.3,896.2,470,902.1,470,902.1z"/>
	<path class="st6" d="M480,888l-9,13l-4,10c0,0-12,3-12-6s3-13,3-13l12-15L480,888z"/>
	<path class="st5" d="M627,474l-49,434h-31c0,0,7-180,15-197s-46.3-228-13.6-237C587.6,469,627,474,627,474z"/>
	<g>
		<path class="st7" d="M605.3,205.2c-19.7-1.8-64.5-9.9-57.4,62.7c7.2,72.6-112.9,17-123.7,110.2s108.5,139.8,156,83.4    s37.2-135.8,40.8-136.7c3.6-0.9,17.5-8.5,15.7-35.4C634.9,262.5,645.6,206.1,605.3,205.2z"/>
		<path class="st8" d="M613.2,283.9c-2.1,18.5-9.3,39.1-9.3,39.1l-15.2,3.6l-3.1-6.7l-4-22.9L613.2,283.9z"/>
		<path class="st6" d="M619.7,262.5c0,20.3-19.7,43-36.7,43c-17.1,0-22.4-21.5-25.1-43c-2.5-20.1,13.8-36.7,30.9-36.7    C605.8,225.8,619.7,242.2,619.7,262.5z"/>
		<path class="st7" d="M602.6,228.5c-4.5,11.7-47.5,10.8-47.5,44.8c-14.3-26-0.9-71.7,43.9-60.1    C607.1,218.6,602.6,228.5,602.6,228.5z"/>
		<path class="st7" d="M602.6,228.5c-0.9,4.5,1.8,31.1,17,32.1s7.2-55.4-20.6-47.4C594.6,224.9,602.6,228.5,602.6,228.5z"/>
	</g>
	<path class="st9" d="M539,474c-31,27-70,66-35,138s31,113,31,113s-54,80-77,156c23,16,23,16,23,16l98-158V474H539z"/>
	<path class="st6" d="M750,521l18,7c0,0,34,5,37,7c1.8,1.2,8.9,14.1,14.1,23.9c0.7,1.3-1.1,2.4-2,1.3c-4.7-5.9-10.5-13-14.2-17.2   c-13,0-16,6-16,6s10-1,14,3c-10,2-16,2-16,2l-43-18L750,521z"/>
	<path class="st10" d="M609,319L609,319c27.8,22,47.7,52.4,56.5,86.7c10.9,42.8,35,100.1,87.5,112.3c-3,16-7,27-7,27   s-120-48-123-136C608,351,609,319,609,319z"/>
	<path class="st11" d="M585,315c-19,1-75-7-100-5s-55-9-74-42c-7-13-31-11-22,15c14,24,50,76,124,78l1.5,5.7   c15.3,57.2,1.7,118.3-36.4,163.6L459,553l44.8,30.9c39.2,27,92.8,16.7,119.2-22.9l0,0c0,0,30-165,23-178s-37.1-64.4-37.1-64.4   L585,315z"/>
	<path class="st6" d="M407,271c-4,4-16,7-17,0s5-38,5-38l29-12h15c-3,2-13,5-13,5l-10,5c0,0,21,1,21,2s-13,14-17,15S407,271,407,271   z"/>
	<ellipse transform="matrix(0.457 -0.8895 0.8895 0.457 101.3071 696.9532)" class="st6" cx="621.5" cy="265.5" rx="9.5" ry="5.5"/>
	<circle class="st11" cx="622" cy="276" r="5"/>
</g>
<g>
	<g>
		<g>
			<path class="st12" d="M941.5,853.3c-9.3-43.5-38.1-82.5-76.9-104.2c20.8,39.2,45.6,76.3,74.1,110.4L941.5,853.3z"/>
		</g>
		<g>
			<path class="st13" d="M952,869.7c-37-51.7-55.5-116.4-51.6-179.8c24,58.6,42.1,119.6,54,181.7L952,869.7z"/>
		</g>
		<g>
			<path class="st12" d="M941.4,871.4c-1.1-31.8-2.3-63.9,2.7-95.3c5-31.4,16.6-62.6,37.9-86.2c3.3,65.2-12.5,131.1-44.9,187.8     L941.4,871.4z"/>
		</g>
		<g>
			<path class="st4" d="M942.9,874.3c-20.8-60.2-17.4-128.4,9.3-186.2c16.7,60.4,1.9,124.5-12.9,185.4L942.9,874.3z"/>
		</g>
		<g>
			<path class="st13" d="M945.6,852c5.8-52.8,41-101.4,89.4-123.3c-19.6,52.7-53.2,100.1-96.3,136.1L945.6,852z"/>
		</g>
	</g>
	<path class="st14" d="M995.5,842.7l-6,102.5c0,4.9-4,9-9,9h-71.1c-4.9,0-9-4-9-9l-1.4-23.2l-4.6-79.3c0-4.9,4-9,9-9h83.1   c3.2,0,6.1,1.7,7.7,4.3v0C995,839.4,995.5,841,995.5,842.7z"/>
	<g>
		<path class="st14" d="M995.5,842.7l-6,102.5c0,4.9-4,9-9,9h-71.1c-4.9,0-9-4-9-9l-1.4-23.2c33.1-9.5,67.3-50.5,95.1-84    C995,839.4,995.5,841,995.5,842.7z"/>
	</g>
</g>
<g>
	<g>
		<g>
			<path class="st12" d="M102.6,881.7c-6.4-30-26.2-56.8-53-71.8c14.3,27,31.4,52.6,51,76L102.6,881.7z"/>
		</g>
		<g>
			<path class="st13" d="M109.8,893c-25.5-35.6-38.3-80.2-35.6-123.9c16.5,40.4,29,82.4,37.2,125.2L109.8,893z"/>
		</g>
		<g>
			<path class="st12" d="M102.5,894.2c-0.8-21.9-1.6-44,1.9-65.7c3.4-21.7,11.4-43.1,26.1-59.4c2.2,44.9-8.6,90.3-30.9,129.4     L102.5,894.2z"/>
		</g>
		<g>
			<path class="st4" d="M103.5,896.1c-14.3-41.5-12-88.4,6.4-128.2c11.5,41.6,1.3,85.8-8.9,127.7L103.5,896.1z"/>
		</g>
		<g>
			<path class="st13" d="M105.4,880.8c4-36.4,28.2-69.8,61.6-84.9c-13.5,36.3-36.6,68.9-66.4,93.8L105.4,880.8z"/>
		</g>
	</g>
	<path class="st14" d="M139.8,874.4l-4.1,70.6c0,3.4-2.8,6.2-6.2,6.2h-49c-3.4,0-6.2-2.8-6.2-6.2l-0.9-16l-3.2-54.7   c0-3.4,2.8-6.2,6.2-6.2h57.2c2.2,0,4.2,1.2,5.3,3v0C139.5,872.2,139.8,873.2,139.8,874.4z"/>
	<g>
		<path class="st14" d="M139.8,874.4l-4.1,70.6c0,3.4-2.8,6.2-6.2,6.2h-49c-3.4,0-6.2-2.8-6.2-6.2l-0.9-16    c22.8-6.5,46.4-34.8,65.5-57.9C139.5,872.2,139.8,873.2,139.8,874.4z"/>
	</g>
</g>
<circle class="st11" cx="726.2" cy="259.8" r="46.8"/>
<circle class="st11" cx="377.2" cy="473.8" r="30.2"/>
</svg>